<svg width="18" height="16" viewBox="0 0 18 16" fill="none" xmlns="http://www.w3.org/2000/svg">
<path d="M10.7499 4.66667H9.49992V8.83333L13.0666 10.95L13.6666 9.94167L10.7499 8.20833V4.66667ZM10.3333 0.5C8.34413 0.5 6.43647 1.29018 5.02995 2.6967C3.62343 4.10322 2.83325 6.01088 2.83325 8H0.333252L3.63325 11.3583L6.99992 8H4.49992C4.49992 6.4529 5.1145 4.96917 6.20846 3.87521C7.30242 2.78125 8.78616 2.16667 10.3333 2.16667C11.8803 2.16667 13.3641 2.78125 14.458 3.87521C15.552 4.96917 16.1666 6.4529 16.1666 8C16.1666 9.5471 15.552 11.0308 14.458 12.1248C13.3641 13.2188 11.8803 13.8333 10.3333 13.8333C8.72492 13.8333 7.26659 13.175 6.21659 12.1167L5.03325 13.3C5.72626 14.0004 6.55187 14.5556 7.46186 14.9334C8.37185 15.3111 9.34798 15.5037 10.3333 15.5C12.3224 15.5 14.23 14.7098 15.6366 13.3033C17.0431 11.8968 17.8333 9.98912 17.8333 8C17.8333 6.01088 17.0431 4.10322 15.6366 2.6967C14.23 1.29018 12.3224 0.5 10.3333 0.5Z" fill="#19AEFF"/>
</svg>
